<svg width="136" height="122" viewBox="0 0 136 122" fill="none" xmlns="http://www.w3.org/2000/svg">
<path d="M136 61.0117C136 52.003 124.717 43.4655 107.419 38.1711C111.411 20.5417 109.637 6.51581 101.82 2.0253C100.018 0.971976 97.9111 0.473031 95.6103 0.473031V6.65441C96.8854 6.65441 97.9111 6.90388 98.7705 7.37511C102.541 9.5372 104.176 17.7698 102.901 28.3585C102.596 30.9641 102.097 33.7083 101.487 36.508C96.0538 35.1774 90.1215 34.1518 83.8842 33.4866C80.1419 28.3585 76.2609 23.7017 72.3522 19.627C81.3893 11.2281 89.872 6.62669 95.638 6.62669V0.445312C88.0147 0.445312 78.0351 5.87827 67.9446 15.3028C57.8541 5.93371 47.8744 0.55619 40.2511 0.55619V6.73756C45.9894 6.73756 54.4998 11.3112 63.5369 19.6547C59.6559 23.7294 55.775 28.3585 52.0881 33.4866C45.8231 34.1518 39.8907 35.1774 34.4574 36.5357C33.8198 33.7638 33.3485 31.075 33.0159 28.4971C31.713 17.9084 33.3208 9.6758 37.0632 7.48598C37.8948 6.98704 38.9759 6.76529 40.2511 6.76529V0.583908C37.9225 0.583908 35.8157 1.08285 33.9861 2.13618C26.1965 6.62669 24.4501 20.6249 28.4696 38.1988C11.2271 43.5209 0 52.0307 0 61.0117C0 70.0204 11.2825 78.5579 28.5805 83.8523C24.5887 101.482 26.3628 115.508 34.1802 119.998C35.9821 121.051 38.0889 121.55 40.4174 121.55C48.0408 121.55 58.0204 116.117 68.1109 106.693C78.2014 116.062 88.181 121.44 95.8043 121.44C98.1329 121.44 100.24 120.941 102.069 119.887C109.859 115.397 111.605 101.399 107.586 83.8246C124.773 78.5302 136 69.9927 136 61.0117ZM99.907 42.523C98.8814 46.0988 97.6062 49.7854 96.1647 53.4721C95.0281 51.2546 93.8361 49.037 92.5332 46.8195C91.258 44.602 89.8997 42.4399 88.5414 40.3332C92.4778 40.9153 96.2756 41.636 99.907 42.523ZM87.2108 72.0439C85.0485 75.786 82.8308 79.3341 80.53 82.6327C76.3995 82.993 72.2136 83.187 68 83.187C63.8141 83.187 59.6282 82.993 55.5255 82.6604C53.2246 79.3618 50.9792 75.8415 48.817 72.1271C46.7101 68.4959 44.7974 64.8092 43.051 61.0949C44.7697 57.3805 46.7102 53.6661 48.7892 50.0349C50.9515 46.2928 53.1692 42.7448 55.47 39.4462C59.6005 39.0858 63.7864 38.8918 68 38.8918C72.1859 38.8918 76.3718 39.0858 80.4745 39.4185C82.7754 42.7171 85.0208 46.2374 87.183 49.9518C89.2898 53.583 91.2026 57.2696 92.949 60.984C91.2026 64.6984 89.2898 68.4127 87.2108 72.0439ZM96.1647 68.4404C97.6616 72.1548 98.9368 75.8692 99.9902 79.4727C96.3587 80.3597 92.5332 81.1081 88.5691 81.6902C89.9274 79.5558 91.2858 77.366 92.561 75.1208C93.8361 72.9032 95.0281 70.658 96.1647 68.4404ZM68.0554 98.0168C65.4774 95.3558 62.8993 92.3898 60.349 89.1467C62.8439 89.2576 65.3942 89.3407 67.9723 89.3407C70.5781 89.3407 73.1561 89.2853 75.6788 89.1467C73.1839 92.3898 70.6058 95.3558 68.0554 98.0168ZM47.4309 81.6902C43.4945 81.1081 39.6967 80.3874 36.0652 79.5004C37.0909 75.9246 38.3661 72.238 39.8076 68.5513C40.9441 70.7689 42.1362 72.9864 43.4391 75.2039C44.7419 77.4215 46.0726 79.5836 47.4309 81.6902ZM67.9168 24.0066C70.4949 26.6677 73.073 29.6336 75.6233 32.8767C73.1284 32.7659 70.5781 32.6827 68 32.6827C65.3942 32.6827 62.8161 32.7382 60.2935 32.8767C62.7884 29.6336 65.3665 26.6677 67.9168 24.0066ZM47.4032 40.3332C46.0448 42.4676 44.6865 44.6574 43.4113 46.9027C42.1362 49.1202 40.9441 51.3377 39.8076 53.5553C38.3106 49.8409 37.0355 46.1265 35.9821 42.523C39.6135 41.6637 43.4391 40.9153 47.4032 40.3332ZM22.3155 75.0376C12.5022 70.852 6.1541 65.3636 6.1541 61.0117C6.1541 56.6598 12.5022 51.1437 22.3155 46.9858C24.6996 45.9602 27.3053 45.0455 29.9943 44.1862C31.5744 49.6191 33.6535 55.2738 36.2316 61.0672C33.6812 66.8327 31.6298 72.4597 30.0775 77.865C27.3331 77.0057 24.7273 76.0632 22.3155 75.0376ZM37.2295 114.648C33.4594 112.486 31.8239 104.254 33.0991 93.6649C33.404 91.0593 33.903 88.3151 34.5128 85.5155C39.9462 86.846 45.8785 87.8716 52.1158 88.5368C55.8581 93.6649 59.7391 98.3217 63.6478 102.396C54.6107 110.795 46.128 115.397 40.362 115.397C39.1146 115.369 38.0611 115.12 37.2295 114.648ZM102.984 93.5263C104.287 104.115 102.679 112.348 98.9368 114.537C98.1052 115.036 97.024 115.258 95.7489 115.258C90.0106 115.258 81.5002 110.684 72.4631 102.341C76.3441 98.2663 80.225 93.6372 83.9119 88.5091C90.1769 87.8439 96.1093 86.8183 101.543 85.46C102.18 88.2597 102.679 90.9484 102.984 93.5263ZM113.657 75.0376C111.273 76.0632 108.667 76.978 105.978 77.8373C104.398 72.4043 102.319 66.7496 99.7407 60.9563C102.291 55.1907 104.342 49.5637 105.895 44.1585C108.639 45.0177 111.245 45.9602 113.684 46.9858C123.498 51.1714 129.846 56.6598 129.846 61.0117C129.818 65.3636 123.47 70.8797 113.657 75.0376Z" fill="black"/>
<path d="M67.9699 75.6632C75.1723 75.6632 81.0111 69.1068 81.0111 61.0191C81.0111 52.9314 75.1723 46.375 67.9699 46.375C60.7674 46.375 54.9287 52.9314 54.9287 61.0191C54.9287 69.1068 60.7674 75.6632 67.9699 75.6632Z" fill="black"/>
</svg>
