<svg width="140" height="140" viewBox="0 0 140 140" fill="none" xmlns="http://www.w3.org/2000/svg">
<path d="M10 70V10H130V130H10" fill="#3B3B3B"/>
<path d="M36.3105 70.2114V75.1014H51.9105V119.501H62.9805V75.1014H78.5805V70.3014C78.5805 67.6014 78.5805 65.4114 78.4605 65.3514C78.4605 65.2614 68.9505 65.2314 57.4005 65.2314L36.4005 65.3214V70.2414L36.3105 70.2114ZM106.421 65.2014C109.481 65.9214 111.821 67.3014 113.921 69.4914C115.031 70.6914 116.681 72.7914 116.801 73.3314C116.801 73.5114 111.611 77.0214 108.461 78.9714C108.341 79.0614 107.861 78.5514 107.381 77.7714C105.821 75.5514 104.231 74.5914 101.741 74.4114C98.1405 74.1714 95.7405 76.0614 95.7405 79.2114C95.7405 80.1714 95.9205 80.7114 96.2805 81.4914C97.0905 83.1414 98.5905 84.1314 103.241 86.1714C111.821 89.8614 115.541 92.2914 117.791 95.7714C120.341 99.6714 120.911 105.791 119.201 110.381C117.281 115.391 112.601 118.781 105.911 119.891C103.811 120.251 99.0105 120.191 96.7605 119.801C91.9605 118.901 87.3705 116.501 84.5505 113.411C83.4405 112.211 81.3105 109.001 81.4305 108.791L82.5705 108.071L87.0705 105.461L90.4605 103.481L91.2405 104.531C92.2305 106.091 94.4505 108.191 95.7405 108.911C99.6405 110.921 104.861 110.651 107.441 108.311C108.551 107.291 109.031 106.211 109.031 104.711C109.031 103.331 108.821 102.701 108.131 101.651C107.171 100.331 105.251 99.2514 99.8505 96.8514C93.6405 94.2114 91.0005 92.5314 88.5405 89.9514C87.1305 88.3914 85.8405 85.9614 85.2405 83.9514C84.7905 82.2114 84.6405 77.9514 85.0605 76.2414C86.3505 70.2414 90.8805 66.0414 97.3605 64.8414C99.4605 64.4214 104.411 64.6014 106.481 65.1414L106.421 65.2014Z" fill="white"/>
</svg>
